<svg xmlns="http://www.w3.org/2000/svg" version="1.1" xmlns:xlink="http://www.w3.org/1999/xlink" xmlns:svgjs="http://svgjs.dev/svgjs" width="1500" height="1500" viewBox="0 0 1500 1500"><rect width="1500" height="1500" fill="#3b82f6"></rect><g transform="matrix(0.6666666666666666,0,0,0.6666666666666666,249.39393939393938,661.6852505898643)"><svg viewBox="0 0 396 70" data-background-color="#3b82f6" preserveAspectRatio="xMidYMid meet" height="265" width="1500" xmlns="http://www.w3.org/2000/svg" xmlns:xlink="http://www.w3.org/1999/xlink"><g id="tight-bounds" transform="matrix(1,0,0,1,0.2400000000000091,-0.007363441267017379)"><svg viewBox="0 0 395.52 70.01472688253403" height="70.01472688253403" width="395.52"><g><svg viewBox="0 0 498.92666702167935 88.31971664122138" height="70.01472688253403" width="395.52"><g transform="matrix(1,0,0,1,0,12.206270534351148)"><svg viewBox="0 0 395.52 63.90717557251908" height="63.90717557251908" width="395.52"><g id="textblocktransform"><svg viewBox="0 0 395.52 63.90717557251908" height="63.90717557251908" width="395.52" id="textblock"><g><svg viewBox="0 0 395.52 63.90717557251908" height="63.90717557251908" width="395.52"><g transform="matrix(1,0,0,1,0,0)"><svg width="395.52" viewBox="2.2 -37.6 235.79000000000002 38.1" height="63.90717557251908" data-palette-color="#ffffff"><path d="M18.9 0.5L18.9 0.5Q13.85 0.5 10.08-1.85 6.3-4.2 4.25-8.45 2.2-12.7 2.2-18.4L2.2-18.4Q2.2-24.3 4.35-28.6 6.5-32.9 10.38-35.25 14.25-37.6 19.4-37.6L19.4-37.6Q23.45-37.6 26.65-36.05 29.85-34.5 31.83-32.1 33.8-29.7 34.3-27L34.3-27Q34.5-26.25 34.38-26 34.25-25.75 33.75-25.65L33.75-25.65 27.15-24.65Q26.7-24.65 26.58-24.85 26.45-25.05 26.35-25.45L26.35-25.45Q26.05-27.1 25.13-28.45 24.2-29.8 22.73-30.63 21.25-31.45 19.2-31.45L19.2-31.45Q16.75-31.45 14.98-30.15 13.2-28.85 12.28-26.05 11.35-23.25 11.35-18.7L11.35-18.7Q11.35-13.9 12.33-11.05 13.3-8.2 15.13-6.93 16.95-5.65 19.5-5.65L19.5-5.65Q21.1-5.65 22.33-6.13 23.55-6.6 24.43-7.4 25.3-8.2 25.85-9.22 26.4-10.25 26.65-11.35L26.65-11.35 26.75-12.8Q26.95-13.55 26.25-13.55L26.25-13.55 20.2-13.55Q19.8-13.55 19.6-13.73 19.4-13.9 19.4-14.4L19.4-14.4 19.4-18.15Q19.4-18.85 20.2-18.85L20.2-18.85 33.55-18.8Q34.3-18.8 34.65-18.48 35-18.15 35-17.6L35-17.6 35-0.75Q35-0.4 34.8-0.2 34.6 0 34.25 0L34.25 0 32.65 0Q32.25 0 31.95-0.18 31.65-0.35 31.35-0.8L31.35-0.8 29.9-4.4Q29.85-4.55 29.73-4.55 29.6-4.55 29.4-4.3L29.4-4.3Q28.5-3.2 27.15-2.08 25.8-0.95 23.8-0.23 21.8 0.5 18.9 0.5L18.9 0.5ZM41.1-36.15L41.1-36.15Q41.1-37.1 41.9-37.1L41.9-37.1 67.1-37.1Q67.85-37.1 67.85-36.25L67.85-36.25 67.8-31.75Q67.8-30.7 66.75-30.7L66.75-30.7 50.8-30.7Q49.85-30.7 49.85-29.9L49.85-29.9 49.85-22.65Q49.85-21.8 50.6-21.8L50.6-21.8 61.2-21.8Q62.05-21.8 62.05-21L62.05-21 62.05-16.2Q62.05-15.9 61.87-15.7 61.7-15.5 61.25-15.5L61.25-15.5 50.55-15.5Q49.85-15.5 49.85-14.9L49.85-14.9 49.85-7.05Q49.85-6.4 50.4-6.4L50.4-6.4 67.5-6.4Q68.4-6.4 68.4-5.65L68.4-5.65 68.4-0.9Q68.4-0.5 68.17-0.25 67.95 0 67.4 0L67.4 0 42.2 0Q41.1 0 41.1-1.05L41.1-1.05 41.1-36.15ZM72.7 0L72.7 0Q72.25 0 72.05-0.4 71.85-0.8 72.05-1.45L72.05-1.45 84.5-36.1Q84.7-36.65 84.95-36.88 85.2-37.1 85.8-37.1L85.8-37.1 93.3-37.1Q94.4-37.1 94.8-36L94.8-36 107.15-1.35Q107.3-0.95 107.15-0.48 107 0 106.55 0L106.55 0 99.2 0Q98.45 0 98.25-0.7L98.25-0.7 95.65-8Q95.6-8.25 95.47-8.4 95.35-8.55 95-8.55L95-8.55 82.8-8.55Q82.3-8.55 82.15-8.05L82.15-8.05 79.5-0.65Q79.4-0.35 79.17-0.18 78.95 0 78.45 0L78.45 0 72.7 0ZM84.75-15.2L92.95-15.2Q93.65-15.2 93.4-16.05L93.4-16.05 89.2-27.75Q89.05-28.05 88.87-28.05 88.7-28.05 88.55-27.7L88.55-27.7 84.3-16.05Q83.95-15.2 84.75-15.2L84.75-15.2ZM142.44-1.35L142.44-1.35Q142.64-0.8 142.42-0.4 142.19 0 141.69 0L141.69 0 134.34 0Q133.49 0 133.24-0.9L133.24-0.9 127.84-14.9Q127.54-15.6 126.44-15.6L126.44-15.6 121.69-15.6Q121.34-15.6 121.22-15.4 121.09-15.2 121.09-15.05L121.09-15.05 121.09-1.2Q121.09 0 119.74 0L119.74 0 113.39 0Q112.79 0 112.57-0.25 112.34-0.5 112.34-1L112.34-1 112.34-36.15Q112.34-37.1 113.14-37.1L113.14-37.1 128.74-37.1Q135.44-37.1 139.17-34.45 142.89-31.8 142.89-26.9L142.89-26.9Q142.89-24.35 141.94-22.35 140.99-20.35 139.44-19.03 137.89-17.7 136.04-17.05L136.04-17.05Q135.59-16.9 135.84-16.3L135.84-16.3 142.44-1.35ZM127.94-21.5L127.94-21.5Q130.79-21.5 132.32-22.73 133.84-23.95 133.84-26.3L133.84-26.3Q133.84-28.75 132.29-30 130.74-31.25 128.19-31.25L128.19-31.25 122.04-31.25Q121.09-31.25 121.09-30.4L121.09-30.4 121.09-22.35Q121.09-21.5 121.79-21.5L121.79-21.5 127.94-21.5ZM161.49-15.2L161.49-11.5Q161.49-10.4 160.19-10.4L160.19-10.4 148.44-10.4Q147.84-10.4 147.62-10.63 147.39-10.85 147.39-11.4L147.39-11.4 147.39-15.05Q147.39-15.95 148.14-15.95L148.14-15.95 160.74-15.95Q161.49-15.95 161.49-15.2L161.49-15.2ZM182.84 0.5L182.84 0.5Q177.79 0.5 174.01-1.85 170.24-4.2 168.19-8.45 166.14-12.7 166.14-18.4L166.14-18.4Q166.14-24.3 168.29-28.6 170.44-32.9 174.31-35.25 178.19-37.6 183.34-37.6L183.34-37.6Q187.39-37.6 190.59-36.05 193.79-34.5 195.76-32.1 197.74-29.7 198.24-27L198.24-27Q198.44-26.25 198.31-26 198.19-25.75 197.69-25.65L197.69-25.65 191.09-24.65Q190.64-24.65 190.51-24.85 190.39-25.05 190.29-25.45L190.29-25.45Q189.99-27.1 189.06-28.45 188.14-29.8 186.66-30.63 185.19-31.45 183.14-31.45L183.14-31.45Q180.69-31.45 178.91-30.15 177.14-28.85 176.21-26.05 175.29-23.25 175.29-18.7L175.29-18.7Q175.29-13.9 176.26-11.05 177.24-8.2 179.06-6.93 180.89-5.65 183.44-5.65L183.44-5.65Q185.04-5.65 186.26-6.13 187.49-6.6 188.36-7.4 189.24-8.2 189.79-9.22 190.34-10.25 190.59-11.35L190.59-11.35 190.69-12.8Q190.89-13.55 190.19-13.55L190.19-13.55 184.14-13.55Q183.74-13.55 183.54-13.73 183.34-13.9 183.34-14.4L183.34-14.4 183.34-18.15Q183.34-18.85 184.14-18.85L184.14-18.85 197.49-18.8Q198.24-18.8 198.59-18.48 198.94-18.15 198.94-17.6L198.94-17.6 198.94-0.75Q198.94-0.4 198.74-0.2 198.54 0 198.19 0L198.19 0 196.59 0Q196.19 0 195.89-0.18 195.59-0.35 195.29-0.8L195.29-0.8 193.84-4.4Q193.79-4.55 193.66-4.55 193.54-4.55 193.34-4.3L193.34-4.3Q192.44-3.2 191.09-2.08 189.74-0.95 187.74-0.23 185.74 0.5 182.84 0.5L182.84 0.5ZM220.94 0.5L220.94 0.5Q215.64 0.5 211.79-1.78 207.94-4.05 205.86-8.3 203.79-12.55 203.79-18.4L203.79-18.4Q203.79-24.35 205.91-28.65 208.04-32.95 211.89-35.27 215.74-37.6 220.94-37.6L220.94-37.6Q226.14-37.6 229.96-35.27 233.79-32.95 235.89-28.68 237.99-24.4 237.99-18.45L237.99-18.45Q237.99-12.6 235.91-8.35 233.84-4.1 229.99-1.8 226.14 0.5 220.94 0.5L220.94 0.5ZM220.94-5.65L220.94-5.65Q225.04-5.65 226.94-8.63 228.84-11.6 228.84-18.35L228.84-18.35Q228.84-25.25 226.91-28.38 224.99-31.5 220.94-31.5L220.94-31.5Q216.84-31.5 214.89-28.35 212.94-25.2 212.94-18.35L212.94-18.35Q212.94-11.65 214.86-8.65 216.79-5.65 220.94-5.65L220.94-5.65Z" opacity="1" transform="matrix(1,0,0,1,0,0)" fill="#ffffff" class="wordmark-text-0" data-fill-palette-color="primary" id="text-0"></path></svg></g></svg></g></svg></g></svg></g><g transform="matrix(1,0,0,1,410.606950380458,0)"><svg viewBox="0 0 88.31971664122138 88.31971664122138" height="88.31971664122138" width="88.31971664122138"><g data-palette-color="#cbd1c2"><rect width="24.140722548600507" height="88.31971664122138" fill="#cbd1c2" stroke="transparent" data-fill-palette-color="accent" x="0" fill-opacity="1"></rect><rect width="24.140722548600507" height="88.31971664122138" fill="#cbd1c2" stroke="transparent" data-fill-palette-color="accent" x="29.439905547073792" fill-opacity="0.75"></rect><rect width="24.140722548600507" height="88.31971664122138" fill="#cbd1c2" stroke="transparent" data-fill-palette-color="accent" x="58.879811094147584" fill-opacity="0.5"></rect></g></svg></g></svg></g><defs></defs></svg><rect width="395.52" height="70.01472688253403" fill="none" stroke="none" visibility="hidden"></rect></g></svg></g></svg>