<?xml version="1.0" encoding="UTF-8"?>
<svg xmlns="http://www.w3.org/2000/svg" xmlns:xlink="http://www.w3.org/1999/xlink" width="1508px" height="1508px" viewBox="0 0 22 22" version="1.1">
<defs>
<clipPath id="clip1">
  <path d="M 3.671875 10.0625 L 15.277344 10.0625 L 15.277344 11.9375 L 3.671875 11.9375 Z M 3.671875 10.0625 "/>
</clipPath>
<clipPath id="clip2">
  <path d="M 15.71875 9.703125 L 17 9.703125 L 17 12.292969 L 15.71875 12.292969 Z M 15.71875 9.703125 "/>
</clipPath>
<clipPath id="clip3">
  <path d="M 16 9.703125 L 18 9.703125 L 18 12.292969 L 16 12.292969 Z M 16 9.703125 "/>
</clipPath>
<clipPath id="clip4">
  <path d="M 17 9.703125 L 18.308594 9.703125 L 18.308594 12.292969 L 17 12.292969 Z M 17 9.703125 "/>
</clipPath>
</defs>
<g id="surface1">
<rect x="0" y="0" width="22" height="22" style="fill:rgb(23.137255%,50.980392%,96.470588%);fill-opacity:1;stroke:none;"/>
<g clip-path="url(#clip1)" clip-rule="nonzero">
<path style=" stroke:none;fill-rule:nonzero;fill:rgb(100%,100%,100%);fill-opacity:1;" d="M 4.492188 11.9375 C 4.328125 11.9375 4.183594 11.898438 4.058594 11.820312 C 3.933594 11.746094 3.839844 11.636719 3.773438 11.496094 C 3.703125 11.359375 3.671875 11.195312 3.671875 11.007812 C 3.671875 10.8125 3.707031 10.648438 3.777344 10.503906 C 3.847656 10.363281 3.945312 10.253906 4.074219 10.179688 C 4.199219 10.101562 4.347656 10.0625 4.519531 10.0625 C 4.652344 10.0625 4.769531 10.089844 4.875 10.140625 C 4.980469 10.191406 5.066406 10.253906 5.128906 10.332031 C 5.195312 10.410156 5.234375 10.496094 5.25 10.585938 C 5.257812 10.609375 5.257812 10.625 5.253906 10.632812 C 5.25 10.640625 5.242188 10.648438 5.222656 10.652344 L 4.898438 10.699219 C 4.882812 10.699219 4.875 10.695312 4.871094 10.691406 C 4.867188 10.683594 4.863281 10.671875 4.859375 10.660156 C 4.851562 10.605469 4.828125 10.558594 4.800781 10.511719 C 4.769531 10.46875 4.730469 10.433594 4.679688 10.40625 C 4.632812 10.378906 4.574219 10.367188 4.507812 10.367188 C 4.425781 10.367188 4.359375 10.386719 4.300781 10.429688 C 4.242188 10.472656 4.199219 10.539062 4.167969 10.632812 C 4.136719 10.722656 4.121094 10.84375 4.121094 10.992188 C 4.121094 11.152344 4.136719 11.277344 4.167969 11.371094 C 4.203125 11.464844 4.246094 11.53125 4.308594 11.570312 C 4.367188 11.613281 4.4375 11.636719 4.523438 11.636719 C 4.574219 11.636719 4.621094 11.628906 4.660156 11.613281 C 4.703125 11.597656 4.738281 11.574219 4.765625 11.550781 C 4.792969 11.523438 4.816406 11.492188 4.835938 11.460938 C 4.851562 11.425781 4.867188 11.390625 4.875 11.355469 L 4.878906 11.285156 C 4.886719 11.257812 4.878906 11.246094 4.855469 11.246094 L 4.558594 11.246094 C 4.542969 11.246094 4.535156 11.242188 4.527344 11.238281 C 4.519531 11.230469 4.519531 11.222656 4.519531 11.203125 L 4.519531 11.019531 C 4.519531 10.996094 4.53125 10.984375 4.558594 10.984375 L 5.214844 10.988281 C 5.238281 10.988281 5.257812 10.992188 5.269531 11.003906 C 5.28125 11.015625 5.285156 11.027344 5.285156 11.046875 L 5.285156 11.875 C 5.285156 11.886719 5.28125 11.898438 5.277344 11.902344 C 5.269531 11.910156 5.261719 11.914062 5.25 11.914062 L 5.167969 11.914062 C 5.15625 11.914062 5.144531 11.910156 5.136719 11.90625 C 5.125 11.898438 5.117188 11.890625 5.105469 11.875 L 5.035156 11.695312 C 5.03125 11.691406 5.03125 11.6875 5.027344 11.6875 C 5.023438 11.6875 5.015625 11.695312 5.011719 11.703125 C 4.980469 11.738281 4.945312 11.773438 4.898438 11.8125 C 4.855469 11.847656 4.800781 11.878906 4.734375 11.902344 C 4.667969 11.925781 4.589844 11.9375 4.492188 11.9375 Z M 5.585938 10.132812 C 5.585938 10.101562 5.597656 10.085938 5.625 10.085938 L 6.867188 10.085938 C 6.890625 10.085938 6.902344 10.101562 6.902344 10.128906 L 6.898438 10.351562 C 6.898438 10.386719 6.882812 10.402344 6.847656 10.402344 L 6.0625 10.402344 C 6.03125 10.402344 6.015625 10.414062 6.015625 10.441406 L 6.015625 10.796875 C 6.015625 10.828125 6.027344 10.839844 6.054688 10.839844 L 6.574219 10.839844 C 6.601562 10.839844 6.617188 10.851562 6.617188 10.878906 L 6.617188 11.117188 C 6.617188 11.125 6.613281 11.132812 6.609375 11.140625 C 6.601562 11.148438 6.59375 11.152344 6.578125 11.152344 L 6.050781 11.152344 C 6.027344 11.152344 6.015625 11.160156 6.015625 11.179688 L 6.015625 11.566406 C 6.015625 11.585938 6.027344 11.597656 6.042969 11.597656 L 6.886719 11.597656 C 6.914062 11.597656 6.929688 11.609375 6.929688 11.636719 L 6.929688 11.867188 C 6.929688 11.882812 6.925781 11.894531 6.917969 11.902344 C 6.910156 11.910156 6.898438 11.914062 6.878906 11.914062 L 5.640625 11.914062 C 5.605469 11.914062 5.585938 11.894531 5.585938 11.863281 Z M 7.140625 11.914062 C 7.125 11.914062 7.117188 11.90625 7.109375 11.894531 C 7.101562 11.878906 7.101562 11.863281 7.109375 11.84375 L 7.722656 10.136719 C 7.726562 10.117188 7.734375 10.105469 7.742188 10.097656 C 7.753906 10.089844 7.765625 10.085938 7.785156 10.085938 L 8.15625 10.085938 C 8.191406 10.085938 8.214844 10.105469 8.230469 10.140625 L 8.835938 11.847656 C 8.839844 11.859375 8.839844 11.875 8.835938 11.890625 C 8.832031 11.90625 8.820312 11.914062 8.808594 11.914062 L 8.445312 11.914062 C 8.421875 11.914062 8.40625 11.902344 8.398438 11.878906 L 8.269531 11.519531 C 8.269531 11.511719 8.265625 11.503906 8.261719 11.5 C 8.257812 11.496094 8.25 11.492188 8.238281 11.492188 L 7.636719 11.492188 C 7.621094 11.492188 7.609375 11.5 7.605469 11.515625 L 7.476562 11.882812 C 7.472656 11.890625 7.46875 11.898438 7.460938 11.90625 C 7.453125 11.910156 7.441406 11.914062 7.425781 11.914062 Z M 7.734375 11.164062 L 8.136719 11.164062 C 8.160156 11.164062 8.167969 11.152344 8.160156 11.125 L 7.953125 10.546875 C 7.949219 10.539062 7.941406 10.53125 7.9375 10.53125 C 7.929688 10.53125 7.925781 10.539062 7.921875 10.550781 L 7.710938 11.125 C 7.699219 11.152344 7.707031 11.164062 7.734375 11.164062 Z M 10.574219 11.847656 C 10.582031 11.863281 10.578125 11.878906 10.574219 11.894531 C 10.566406 11.90625 10.554688 11.914062 10.535156 11.914062 L 10.175781 11.914062 C 10.148438 11.914062 10.128906 11.898438 10.121094 11.867188 L 9.855469 11.179688 C 9.84375 11.15625 9.824219 11.144531 9.785156 11.144531 L 9.550781 11.144531 C 9.539062 11.144531 9.535156 11.148438 9.53125 11.15625 C 9.523438 11.160156 9.523438 11.167969 9.523438 11.171875 L 9.523438 11.855469 C 9.523438 11.894531 9.5 11.914062 9.457031 11.914062 L 9.144531 11.914062 C 9.125 11.914062 9.109375 11.910156 9.105469 11.902344 C 9.097656 11.894531 9.09375 11.878906 9.09375 11.863281 L 9.09375 10.132812 C 9.09375 10.101562 9.105469 10.085938 9.132812 10.085938 L 9.898438 10.085938 C 10.121094 10.085938 10.289062 10.128906 10.414062 10.21875 C 10.535156 10.304688 10.597656 10.429688 10.597656 10.589844 C 10.597656 10.671875 10.582031 10.746094 10.550781 10.8125 C 10.519531 10.878906 10.476562 10.933594 10.425781 10.976562 C 10.375 11.019531 10.320312 11.054688 10.257812 11.074219 C 10.242188 11.078125 10.242188 11.089844 10.25 11.109375 Z M 9.859375 10.855469 C 9.953125 10.855469 10.027344 10.835938 10.074219 10.792969 C 10.125 10.753906 10.152344 10.695312 10.152344 10.617188 C 10.152344 10.539062 10.125 10.476562 10.074219 10.4375 C 10.023438 10.394531 9.957031 10.375 9.871094 10.375 L 9.570312 10.375 C 9.539062 10.375 9.523438 10.390625 9.523438 10.417969 L 9.523438 10.8125 C 9.523438 10.839844 9.535156 10.855469 9.558594 10.855469 Z M 11.511719 11.164062 L 11.511719 11.347656 C 11.511719 11.382812 11.488281 11.402344 11.449219 11.402344 L 10.867188 11.402344 C 10.847656 11.402344 10.835938 11.398438 10.828125 11.390625 C 10.820312 11.382812 10.816406 11.371094 10.816406 11.351562 L 10.816406 11.171875 C 10.816406 11.144531 10.828125 11.128906 10.855469 11.128906 L 11.472656 11.128906 C 11.5 11.128906 11.511719 11.140625 11.511719 11.164062 Z M 12.5625 11.9375 C 12.398438 11.9375 12.25 11.898438 12.128906 11.820312 C 12.003906 11.746094 11.910156 11.636719 11.839844 11.496094 C 11.773438 11.359375 11.742188 11.195312 11.742188 11.007812 C 11.742188 10.8125 11.777344 10.648438 11.847656 10.503906 C 11.917969 10.363281 12.015625 10.253906 12.140625 10.179688 C 12.269531 10.101562 12.417969 10.0625 12.585938 10.0625 C 12.71875 10.0625 12.839844 10.089844 12.945312 10.140625 C 13.046875 10.191406 13.132812 10.253906 13.199219 10.332031 C 13.261719 10.410156 13.304688 10.496094 13.320312 10.585938 C 13.328125 10.609375 13.328125 10.625 13.324219 10.632812 C 13.320312 10.640625 13.308594 10.648438 13.292969 10.652344 L 12.96875 10.699219 C 12.953125 10.699219 12.945312 10.695312 12.941406 10.691406 C 12.9375 10.683594 12.933594 10.671875 12.929688 10.660156 C 12.917969 10.605469 12.898438 10.558594 12.867188 10.511719 C 12.839844 10.46875 12.800781 10.433594 12.75 10.40625 C 12.703125 10.378906 12.644531 10.367188 12.578125 10.367188 C 12.496094 10.367188 12.425781 10.386719 12.367188 10.429688 C 12.3125 10.472656 12.265625 10.539062 12.234375 10.632812 C 12.207031 10.722656 12.191406 10.84375 12.191406 10.992188 C 12.191406 11.152344 12.207031 11.277344 12.238281 11.371094 C 12.269531 11.464844 12.316406 11.53125 12.375 11.570312 C 12.4375 11.613281 12.507812 11.636719 12.589844 11.636719 C 12.644531 11.636719 12.691406 11.628906 12.730469 11.613281 C 12.769531 11.597656 12.804688 11.574219 12.832031 11.550781 C 12.863281 11.523438 12.886719 11.492188 12.90625 11.460938 C 12.921875 11.425781 12.933594 11.390625 12.945312 11.355469 L 12.949219 11.285156 C 12.957031 11.257812 12.945312 11.246094 12.925781 11.246094 L 12.625 11.246094 C 12.613281 11.246094 12.601562 11.242188 12.597656 11.238281 C 12.589844 11.230469 12.585938 11.222656 12.585938 11.203125 L 12.585938 11.019531 C 12.585938 10.996094 12.601562 10.984375 12.625 10.984375 L 13.285156 10.988281 C 13.308594 10.988281 13.324219 10.992188 13.335938 11.003906 C 13.347656 11.015625 13.355469 11.027344 13.355469 11.046875 L 13.355469 11.875 C 13.355469 11.886719 13.351562 11.898438 13.34375 11.902344 C 13.339844 11.910156 13.328125 11.914062 13.316406 11.914062 L 13.238281 11.914062 C 13.226562 11.914062 13.214844 11.910156 13.203125 11.90625 C 13.195312 11.898438 13.183594 11.890625 13.175781 11.875 L 13.105469 11.695312 C 13.101562 11.691406 13.097656 11.6875 13.09375 11.6875 C 13.089844 11.6875 13.085938 11.695312 13.078125 11.703125 C 13.050781 11.738281 13.011719 11.773438 12.96875 11.8125 C 12.925781 11.847656 12.867188 11.878906 12.804688 11.902344 C 12.738281 11.925781 12.65625 11.9375 12.5625 11.9375 Z M 14.4375 11.9375 C 14.261719 11.9375 14.113281 11.902344 13.988281 11.824219 C 13.859375 11.75 13.761719 11.644531 13.695312 11.503906 C 13.628906 11.367188 13.59375 11.199219 13.59375 11.007812 C 13.59375 10.8125 13.628906 10.644531 13.699219 10.503906 C 13.769531 10.363281 13.867188 10.253906 13.992188 10.175781 C 14.117188 10.101562 14.265625 10.0625 14.4375 10.0625 C 14.609375 10.0625 14.757812 10.101562 14.882812 10.175781 C 15.007812 10.253906 15.105469 10.363281 15.171875 10.5 C 15.242188 10.640625 15.277344 10.808594 15.277344 11.003906 C 15.277344 11.195312 15.242188 11.363281 15.175781 11.503906 C 15.105469 11.640625 15.007812 11.75 14.882812 11.824219 C 14.757812 11.898438 14.609375 11.9375 14.4375 11.9375 Z M 14.4375 11.636719 C 14.570312 11.636719 14.671875 11.585938 14.734375 11.488281 C 14.796875 11.390625 14.828125 11.230469 14.828125 11.011719 C 14.828125 10.785156 14.792969 10.621094 14.730469 10.515625 C 14.667969 10.414062 14.570312 10.363281 14.4375 10.363281 C 14.304688 10.363281 14.203125 10.414062 14.140625 10.519531 C 14.074219 10.621094 14.042969 10.785156 14.042969 11.011719 C 14.042969 11.230469 14.074219 11.390625 14.136719 11.488281 C 14.203125 11.585938 14.300781 11.636719 14.4375 11.636719 Z M 14.4375 11.636719 "/>
</g>
<g clip-path="url(#clip2)" clip-rule="nonzero">
<path style="fill-rule:nonzero;fill:rgb(79.607843%,81.960784%,76.078431%);fill-opacity:1;stroke-width:1;stroke-linecap:butt;stroke-linejoin:miter;stroke:rgb(100%,100%,100%);stroke-opacity:1;stroke-miterlimit:4;" d="M -0.0328489 -0.0449647 L 24.194824 -0.0449647 L 24.194824 88.346104 L -0.0328489 88.346104 Z M -0.0328489 -0.0449647 " transform="matrix(0.029344,0,0,0.029344,15.719714,9.704444)"/>
</g>
<g clip-path="url(#clip3)" clip-rule="nonzero">
<path style="fill-rule:nonzero;fill:rgb(79.607843%,81.960784%,76.078431%);fill-opacity:0.74902;stroke-width:1;stroke-linecap:butt;stroke-linejoin:miter;stroke:rgb(100%,100%,100%);stroke-opacity:1;stroke-miterlimit:4;" d="M 29.386468 -0.0449647 L 53.61414 -0.0449647 L 53.61414 88.346104 L 29.386468 88.346104 Z M 29.386468 -0.0449647 " transform="matrix(0.029344,0,0,0.029344,15.719714,9.704444)"/>
</g>
<g clip-path="url(#clip4)" clip-rule="nonzero">
<path style="fill-rule:nonzero;fill:rgb(79.607843%,81.960784%,76.078431%);fill-opacity:0.501961;stroke-width:1;stroke-linecap:butt;stroke-linejoin:miter;stroke:rgb(100%,100%,100%);stroke-opacity:1;stroke-miterlimit:4;" d="M 58.938903 -0.0449647 L 83.033457 -0.0449647 L 83.033457 88.346104 L 58.938903 88.346104 Z M 58.938903 -0.0449647 " transform="matrix(0.029344,0,0,0.029344,15.719714,9.704444)"/>
</g>
</g>
</svg>
